Coordinates
version=1
nRows=9
nColumns=36
inDegrees=yes

Units are S.I. units (second, meters, Newtons, ...)
If the header above contains a line with 'inDegrees', this indicates whether rotational values are in degrees (yes) or radians (no).

endheader
time	pelvis_tilt	pelvis_list	pelvis_rotation	pelvis_tx	pelvis_ty	pelvis_tz	hip_flexion_r	hip_adduction_r	hip_rotation_r	knee_angle_r	knee_angle_r_beta	ankle_angle_r	subtalar_angle_r	mtp_angle_r	hip_flexion_l	hip_adduction_l	hip_rotation_l	knee_angle_l	knee_angle_l_beta	ankle_angle_l	subtalar_angle_l	mtp_angle_l	lumbar_extension	lumbar_bending	lumbar_rotation	arm_flex_r	arm_add_r	arm_rot_r	elbow_flex_r	pro_sup_r	arm_flex_l	arm_add_l	arm_rot_l	elbow_flex_l	pro_sup_l
      4.95000000	     10.24815516	      0.44668550	      1.42641247	     -0.10512340	      0.78539409	      0.32893090	     18.37206923	     12.44472047	      1.86216947	     59.60071479	      1.04022871	     28.11555782	    -18.77012647	     -7.49999987	     37.92067811	     -3.53534272	     -1.66132304	     10.43474191	      0.18212060	     -2.87761499	      2.61531343	     -7.49999987	    -12.93879915	      3.02256130	      1.25233916	     39.29862703	      4.90612393	     61.28587610	    123.26408700	     79.27421861	     48.52248835	     10.55056957	     71.54861816	    126.16387886	     61.99968329
      4.96666670	     10.29649867	      0.31352201	      1.52975634	     -0.10444406	      0.77861402	      0.32871631	     19.42295125	     12.62398150	      1.51401953	     61.50699040	      1.07349950	     29.22370043	    -18.54440039	     -7.49999987	     38.04064704	     -3.56839392	     -1.13598593	     10.60269888	      0.18505201	     -2.89242531	      2.25691227	     -7.49999987	    -13.33476442	      3.16719135	      0.86257688	     39.30034866	      4.94721988	     60.97521803	    123.28179020	     80.49404631	     48.61613034	     10.43964741	     71.66261281	    126.33570765	     61.85612485
      4.98333330	     10.18381258	      0.06051098	      1.35012862	     -0.10553265	      0.77363961	      0.32854125	     20.39090174	     12.97512355	      1.26980418	     63.00412926	      1.09962950	     30.01483786	    -18.51807396	     -7.49999987	     38.22547874	     -3.87137311	     -0.74940973	     10.55151475	      0.18415867	     -2.84563740	      2.03980853	     -7.49999987	    -13.58488216	      3.41974134	      0.55484930	     39.27346450	      4.98478353	     60.72390188	    123.28923057	     79.44651456	     48.70815867	     10.26234433	     71.58899691	    126.22936490	     61.75050822
      5.00000000	     10.28437707	     -0.20714536	      1.34950303	     -0.10912764	      0.76803758	      0.32917165	     21.25674571	     13.33545246	      1.04273954	     64.46074554	      1.12505225	     30.77462576	    -18.25484112	     -7.49999987	     38.27486487	     -4.16731745	     -0.65897811	     10.46989516	      0.18273414	     -3.04125841	      2.04616679	     -7.49999987	    -14.08446501	      3.77663239	      0.48089669	     39.24617032	      4.70352300	     59.67262622	    122.92194319	     79.91606088	     48.93774551	     10.36917616	     71.53062433	    126.06888910	     61.66225418
      5.01666670	     10.25987850	     -0.41045431	      1.44324371	     -0.10997486	      0.76358008	      0.32926507	     22.00090453	     13.62041620	      0.79359545	     65.57178461	      1.14444354	     31.50563482	    -17.87043458	     -7.49999987	     38.37590594	     -4.36114744	     -0.34748896	     10.38330420	      0.18122285	     -3.43601876	      1.81786987	     -7.49999987	    -14.47455824	      4.00567373	      0.39852377	     39.17436021	      4.54575900	     59.05505408	    122.91241182	     81.09536864	     49.03251745	     10.45983863	     71.60718806	    125.77860490	     61.42316462
      5.03333330	     10.25256429	     -0.79325092	      1.29100828	     -0.11137767	      0.75822545	      0.32959003	     22.83910484	     14.16127305	      0.64147704	     66.80387103	      1.16594750	     31.84744007	    -18.01463283	     -7.49999987	     38.42327268	     -4.85958388	     -0.33808946	     10.10139246	      0.17630256	     -3.69240773	      2.00620074	     -7.49999987	    -14.86152290	      4.38574138	      0.19625536	     39.34393703	      4.57487653	     58.66199677	    122.69419016	     80.79010402	     49.23304369	     10.47384495	     71.40079430	    125.48347434	     61.37147104
      5.05000000	     10.21579723	     -0.96499490	      1.23909643	     -0.11200074	      0.75564897	      0.32934232	     23.34806978	     14.37971505	      0.46667935	     67.56699006	      1.17926644	     31.97687475	    -17.92600261	     -7.49999987	     38.40674877	     -5.04418750	     -0.27502175	      9.93653180	      0.17342520	     -3.90333368	      1.99760003	     -7.49999987	    -15.12194914	      4.63899122	      0.03695735	     39.41099298	      4.59390439	     58.39268072	    122.52453571	     79.12315485	     49.15157026	     10.45263240	     71.44814277	    125.60916270	     61.28634771
      5.06666670	     10.52175699	     -1.11996276	      1.05175019	     -0.11396216	      0.75265980	      0.32919661	     23.44464106	     14.60089213	      0.44741302	     68.23572866	      1.19093813	     32.00882303	    -18.01289418	     -7.49999987	     37.87568645	     -5.28154774	     -0.45739708	      9.59284637	      0.16742675	     -3.97997050	      2.21965240	     -7.49999987	    -15.82076743	      4.87726183	      0.04685686	     39.61803342	      4.65533835	     58.10305141	    122.16593904	     83.16138840	     49.29081085	     10.47619483	     71.52052238	    125.37410955	     61.20938744
      5.08333330	     10.44954130	     -1.41049499	      0.70864923	     -0.11414246	      0.74907871	      0.32916908	     24.02651481	     15.07120730	      0.49096044	     68.83154799	      1.20133714	     32.26725308	    -17.74852709	     -7.49999987	     37.73681850	     -5.71701546	     -0.45813964	      9.08924806	      0.15863731	     -4.33886527	      2.27604424	     -7.49999987	    -16.14435630	      5.14520262	     -0.28704378	     39.66434283	      4.82934404	     58.40504766	    122.49504075	     81.70705210	     49.12710138	     10.31552691	     71.50483770	    125.35404013	     61.19038147
